solid OpenSCAD_Model
  facet normal -1 0 0
    outer loop
      vertex -15.25 1.5 -20.6
      vertex -15.25 0 -2.5
      vertex -15.25 1.5 -2.5
    endloop
  endfacet
  facet normal -1 -0 0
    outer loop
      vertex -15.25 0 -2.5
      vertex -15.25 -1.5 -20.6
      vertex -15.25 0 2.5
    endloop
  endfacet
  facet normal -1 0 0
    outer loop
      vertex -15.25 -1.5 -20.6
      vertex -15.25 0 -2.5
      vertex -15.25 1.5 -20.6
    endloop
  endfacet
  facet normal -1 0 0
    outer loop
      vertex -15.25 0 2.5
      vertex -15.25 1.5 20.6
      vertex -15.25 1.5 2.5
    endloop
  endfacet
  facet normal -1 0 0
    outer loop
      vertex -15.25 0 2.5
      vertex -15.25 -1.5 20.6
      vertex -15.25 1.5 20.6
    endloop
  endfacet
  facet normal -1 0 0
    outer loop
      vertex -15.25 -1.5 20.6
      vertex -15.25 0 2.5
      vertex -15.25 -1.5 -20.6
    endloop
  endfacet
  facet normal -0 0 1
    outer loop
      vertex -15.25 1.5 20.6
      vertex 15.25 -1.5 20.6
      vertex 15.25 1.5 20.6
    endloop
  endfacet
  facet normal 0 0 1
    outer loop
      vertex 15.25 -1.5 20.6
      vertex -15.25 1.5 20.6
      vertex -15.25 -1.5 20.6
    endloop
  endfacet
  facet normal 1 -0 0
    outer loop
      vertex 15.25 -1.5 20.6
      vertex 15.25 1.5 -20.6
      vertex 15.25 1.5 20.6
    endloop
  endfacet
  facet normal 1 0 0
    outer loop
      vertex 15.25 1.5 -20.6
      vertex 15.25 -1.5 20.6
      vertex 15.25 -1.5 -20.6
    endloop
  endfacet
  facet normal 0 0 -1
    outer loop
      vertex -15.25 -1.5 -20.6
      vertex 15.25 1.5 -20.6
      vertex 15.25 -1.5 -20.6
    endloop
  endfacet
  facet normal -0 0 -1
    outer loop
      vertex 15.25 1.5 -20.6
      vertex -15.25 -1.5 -20.6
      vertex -15.25 1.5 -20.6
    endloop
  endfacet
  facet normal 0 -1 0
    outer loop
      vertex -15.25 -1.5 20.6
      vertex -11.5 -1.5 16.85
      vertex 15.25 -1.5 20.6
    endloop
  endfacet
  facet normal 0 -1 0
    outer loop
      vertex -15.25 -1.5 20.6
      vertex -11.5 -1.5 -16.85
      vertex -11.5 -1.5 16.85
    endloop
  endfacet
  facet normal 0 -1 -0
    outer loop
      vertex -11.5 -1.5 -16.85
      vertex -15.25 -1.5 -20.6
      vertex 11.5 -1.5 -16.85
    endloop
  endfacet
  facet normal 0 -1 0
    outer loop
      vertex -15.25 -1.5 -20.6
      vertex -11.5 -1.5 -16.85
      vertex -15.25 -1.5 20.6
    endloop
  endfacet
  facet normal 0 -1 0
    outer loop
      vertex 11.5 -1.5 16.85
      vertex 15.25 -1.5 20.6
      vertex -11.5 -1.5 16.85
    endloop
  endfacet
  facet normal 0 -1 0
    outer loop
      vertex 11.5 -1.5 -16.85
      vertex 15.25 -1.5 20.6
      vertex 11.5 -1.5 16.85
    endloop
  endfacet
  facet normal 0 -1 0
    outer loop
      vertex 11.5 -1.5 -16.85
      vertex 15.25 -1.5 -20.6
      vertex 15.25 -1.5 20.6
    endloop
  endfacet
  facet normal 0 -1 0
    outer loop
      vertex 15.25 -1.5 -20.6
      vertex 11.5 -1.5 -16.85
      vertex -15.25 -1.5 -20.6
    endloop
  endfacet
  facet normal 0 1 0
    outer loop
      vertex 15.25 1.5 20.6
      vertex 12.9 1.5 18.25
      vertex -15.25 1.5 20.6
    endloop
  endfacet
  facet normal 0 1 0
    outer loop
      vertex 15.25 1.5 20.6
      vertex 12.9 1.5 -18.25
      vertex 12.9 1.5 18.25
    endloop
  endfacet
  facet normal 0 1 0
    outer loop
      vertex 12.9 1.5 -18.25
      vertex 15.25 1.5 -20.6
      vertex -12.9 1.5 -18.25
    endloop
  endfacet
  facet normal 0 1 -0
    outer loop
      vertex 15.25 1.5 -20.6
      vertex 12.9 1.5 -18.25
      vertex 15.25 1.5 20.6
    endloop
  endfacet
  facet normal 0 1 -0
    outer loop
      vertex -12.9 1.5 18.25
      vertex -15.25 1.5 20.6
      vertex 12.9 1.5 18.25
    endloop
  endfacet
  facet normal 0 1 0
    outer loop
      vertex -15.25 1.5 2.5
      vertex -12.9 1.5 18.25
      vertex -12.9 1.5 2.5
    endloop
  endfacet
  facet normal 0 1 0
    outer loop
      vertex -12.9 1.5 18.25
      vertex -15.25 1.5 2.5
      vertex -15.25 1.5 20.6
    endloop
  endfacet
  facet normal 0 1 -0
    outer loop
      vertex -12.9 1.5 -18.25
      vertex -15.25 1.5 -2.5
      vertex -12.9 1.5 -2.5
    endloop
  endfacet
  facet normal 0 1 0
    outer loop
      vertex -12.9 1.5 -18.25
      vertex -15.25 1.5 -20.6
      vertex -15.25 1.5 -2.5
    endloop
  endfacet
  facet normal 0 1 0
    outer loop
      vertex -15.25 1.5 -20.6
      vertex -12.9 1.5 -18.25
      vertex 15.25 1.5 -20.6
    endloop
  endfacet
  facet normal 1 0 0
    outer loop
      vertex -12.9 1.5 18.25
      vertex -12.9 0 2.5
      vertex -12.9 1.5 2.5
    endloop
  endfacet
  facet normal 1 0 0
    outer loop
      vertex -12.9 0 2.5
      vertex -12.9 -0.7 18.25
      vertex -12.9 0 -2.5
    endloop
  endfacet
  facet normal 1 -0 0
    outer loop
      vertex -12.9 -0.7 18.25
      vertex -12.9 0 2.5
      vertex -12.9 1.5 18.25
    endloop
  endfacet
  facet normal 1 -0 0
    outer loop
      vertex -12.9 0 -2.5
      vertex -12.9 1.5 -18.25
      vertex -12.9 1.5 -2.5
    endloop
  endfacet
  facet normal 1 0 0
    outer loop
      vertex -12.9 0 -2.5
      vertex -12.9 -0.7 -18.25
      vertex -12.9 1.5 -18.25
    endloop
  endfacet
  facet normal 1 0 0
    outer loop
      vertex -12.9 -0.7 -18.25
      vertex -12.9 0 -2.5
      vertex -12.9 -0.7 18.25
    endloop
  endfacet
  facet normal 0 0 -1
    outer loop
      vertex -12.9 -0.7 18.25
      vertex 12.9 1.5 18.25
      vertex 12.9 -0.7 18.25
    endloop
  endfacet
  facet normal -0 0 -1
    outer loop
      vertex 12.9 1.5 18.25
      vertex -12.9 -0.7 18.25
      vertex -12.9 1.5 18.25
    endloop
  endfacet
  facet normal -1 0 0
    outer loop
      vertex 12.9 -0.7 -18.25
      vertex 12.9 1.5 18.25
      vertex 12.9 1.5 -18.25
    endloop
  endfacet
  facet normal -1 -0 0
    outer loop
      vertex 12.9 1.5 18.25
      vertex 12.9 -0.7 -18.25
      vertex 12.9 -0.7 18.25
    endloop
  endfacet
  facet normal -0 0 1
    outer loop
      vertex -12.9 1.5 -18.25
      vertex 12.9 -0.7 -18.25
      vertex 12.9 1.5 -18.25
    endloop
  endfacet
  facet normal 0 0 1
    outer loop
      vertex 12.9 -0.7 -18.25
      vertex -12.9 1.5 -18.25
      vertex -12.9 -0.7 -18.25
    endloop
  endfacet
  facet normal 0 1 0
    outer loop
      vertex 12.9 -0.7 18.25
      vertex 11.5 -0.7 16.85
      vertex -12.9 -0.7 18.25
    endloop
  endfacet
  facet normal 0 1 0
    outer loop
      vertex 12.9 -0.7 18.25
      vertex 11.5 -0.7 -16.85
      vertex 11.5 -0.7 16.85
    endloop
  endfacet
  facet normal 0 1 0
    outer loop
      vertex 11.5 -0.7 -16.85
      vertex 12.9 -0.7 -18.25
      vertex -11.5 -0.7 -16.85
    endloop
  endfacet
  facet normal 0 1 -0
    outer loop
      vertex 12.9 -0.7 -18.25
      vertex 11.5 -0.7 -16.85
      vertex 12.9 -0.7 18.25
    endloop
  endfacet
  facet normal 0 1 -0
    outer loop
      vertex -11.5 -0.7 16.85
      vertex -12.9 -0.7 18.25
      vertex 11.5 -0.7 16.85
    endloop
  endfacet
  facet normal 0 1 -0
    outer loop
      vertex -11.5 -0.7 -16.85
      vertex -12.9 -0.7 18.25
      vertex -11.5 -0.7 16.85
    endloop
  endfacet
  facet normal 0 1 0
    outer loop
      vertex -11.5 -0.7 -16.85
      vertex -12.9 -0.7 -18.25
      vertex -12.9 -0.7 18.25
    endloop
  endfacet
  facet normal 0 1 0
    outer loop
      vertex -12.9 -0.7 -18.25
      vertex -11.5 -0.7 -16.85
      vertex 12.9 -0.7 -18.25
    endloop
  endfacet
  facet normal 1 -0 0
    outer loop
      vertex -11.5 -1.5 16.85
      vertex -11.5 -0.7 -16.85
      vertex -11.5 -0.7 16.85
    endloop
  endfacet
  facet normal 1 0 0
    outer loop
      vertex -11.5 -0.7 -16.85
      vertex -11.5 -1.5 16.85
      vertex -11.5 -1.5 -16.85
    endloop
  endfacet
  facet normal 0 0 -1
    outer loop
      vertex -11.5 -1.5 16.85
      vertex 11.5 -0.7 16.85
      vertex 11.5 -1.5 16.85
    endloop
  endfacet
  facet normal -0 0 -1
    outer loop
      vertex 11.5 -0.7 16.85
      vertex -11.5 -1.5 16.85
      vertex -11.5 -0.7 16.85
    endloop
  endfacet
  facet normal -1 0 0
    outer loop
      vertex 11.5 -1.5 -16.85
      vertex 11.5 -0.7 16.85
      vertex 11.5 -0.7 -16.85
    endloop
  endfacet
  facet normal -1 -0 0
    outer loop
      vertex 11.5 -0.7 16.85
      vertex 11.5 -1.5 -16.85
      vertex 11.5 -1.5 16.85
    endloop
  endfacet
  facet normal -0 0 1
    outer loop
      vertex -11.5 -0.7 -16.85
      vertex 11.5 -1.5 -16.85
      vertex 11.5 -0.7 -16.85
    endloop
  endfacet
  facet normal 0 0 1
    outer loop
      vertex 11.5 -1.5 -16.85
      vertex -11.5 -0.7 -16.85
      vertex -11.5 -1.5 -16.85
    endloop
  endfacet
  facet normal 0 0 -1
    outer loop
      vertex -15.25 0 2.5
      vertex -12.9 1.5 2.5
      vertex -12.9 0 2.5
    endloop
  endfacet
  facet normal -0 0 -1
    outer loop
      vertex -12.9 1.5 2.5
      vertex -15.25 0 2.5
      vertex -15.25 1.5 2.5
    endloop
  endfacet
  facet normal -0 0 1
    outer loop
      vertex -15.25 1.5 -2.5
      vertex -12.9 0 -2.5
      vertex -12.9 1.5 -2.5
    endloop
  endfacet
  facet normal 0 0 1
    outer loop
      vertex -12.9 0 -2.5
      vertex -15.25 1.5 -2.5
      vertex -15.25 0 -2.5
    endloop
  endfacet
  facet normal 0 1 -0
    outer loop
      vertex -12.9 0 -2.5
      vertex -15.25 0 2.5
      vertex -12.9 0 2.5
    endloop
  endfacet
  facet normal 0 1 0
    outer loop
      vertex -15.25 0 2.5
      vertex -12.9 0 -2.5
      vertex -15.25 0 -2.5
    endloop
  endfacet
endsolid OpenSCAD_Model
