G04 #@! TF.GenerationSoftware,KiCad,Pcbnew,(5.0.0)*
G04 #@! TF.CreationDate,2018-12-21T15:41:38+00:00*
G04 #@! TF.ProjectId,Multi Chromatic Stimulator,4D756C7469204368726F6D6174696320,rev?*
G04 #@! TF.SameCoordinates,Original*
G04 #@! TF.FileFunction,Copper,L1,Top,Signal*
G04 #@! TF.FilePolarity,Positive*
%FSLAX46Y46*%
G04 Gerber Fmt 4.6, Leading zero omitted, Abs format (unit mm)*
G04 Created by KiCad (PCBNEW (5.0.0)) date 12/21/18 15:41:38*
%MOMM*%
%LPD*%
G01*
G04 APERTURE LIST*
G04 #@! TA.AperFunction,ComponentPad*
%ADD10C,1.750000*%
G04 #@! TD*
G04 #@! TA.AperFunction,ComponentPad*
%ADD11R,1.750000X1.750000*%
G04 #@! TD*
G04 #@! TA.AperFunction,ComponentPad*
%ADD12O,1.600000X1.600000*%
G04 #@! TD*
G04 #@! TA.AperFunction,ComponentPad*
%ADD13C,1.600000*%
G04 #@! TD*
G04 #@! TA.AperFunction,ComponentPad*
%ADD14R,1.600000X1.600000*%
G04 #@! TD*
G04 #@! TA.AperFunction,ComponentPad*
%ADD15C,1.778000*%
G04 #@! TD*
G04 #@! TA.AperFunction,ComponentPad*
%ADD16R,1.778000X1.778000*%
G04 #@! TD*
G04 #@! TA.AperFunction,ComponentPad*
%ADD17O,2.499360X1.600200*%
G04 #@! TD*
G04 #@! TA.AperFunction,ComponentPad*
%ADD18O,7.000240X3.500120*%
G04 #@! TD*
G04 #@! TA.AperFunction,ComponentPad*
%ADD19C,2.500000*%
G04 #@! TD*
G04 #@! TA.AperFunction,ComponentPad*
%ADD20R,3.500000X3.500000*%
G04 #@! TD*
G04 #@! TA.AperFunction,Conductor*
%ADD21C,0.100000*%
G04 #@! TD*
G04 #@! TA.AperFunction,ComponentPad*
%ADD22C,3.000000*%
G04 #@! TD*
G04 #@! TA.AperFunction,ComponentPad*
%ADD23C,3.500000*%
G04 #@! TD*
G04 #@! TA.AperFunction,Conductor*
%ADD24C,0.250000*%
G04 #@! TD*
G04 #@! TA.AperFunction,Conductor*
%ADD25C,1.000000*%
G04 #@! TD*
G04 APERTURE END LIST*
D10*
G04 #@! TO.P,,2*
G04 #@! TO.N,Net-(J25-Pad1)*
X69500000Y-49000000D03*
D11*
G04 #@! TO.P,,1*
G04 #@! TO.N,Net-(J24-Pad1)*
X72000000Y-49000000D03*
G04 #@! TD*
D10*
G04 #@! TO.P,,2*
G04 #@! TO.N,Net-(J25-Pad1)*
X79500000Y-49000000D03*
D11*
G04 #@! TO.P,,1*
G04 #@! TO.N,Net-(J23-Pad1)*
X82000000Y-49000000D03*
G04 #@! TD*
D10*
G04 #@! TO.P,,2*
G04 #@! TO.N,Net-(J25-Pad1)*
X89500000Y-49000000D03*
D11*
G04 #@! TO.P,,1*
G04 #@! TO.N,Net-(J22-Pad1)*
X92000000Y-49000000D03*
G04 #@! TD*
D10*
G04 #@! TO.P,,2*
G04 #@! TO.N,Net-(J25-Pad1)*
X99500000Y-49000000D03*
D11*
G04 #@! TO.P,,1*
G04 #@! TO.N,Net-(J21-Pad1)*
X102000000Y-49000000D03*
G04 #@! TD*
D10*
G04 #@! TO.P,,2*
G04 #@! TO.N,Net-(J25-Pad1)*
X109500000Y-49000000D03*
D11*
G04 #@! TO.P,,1*
G04 #@! TO.N,Net-(J20-Pad1)*
X112000000Y-49000000D03*
G04 #@! TD*
D10*
G04 #@! TO.P,,2*
G04 #@! TO.N,Net-(J25-Pad1)*
X119500000Y-49000000D03*
D11*
G04 #@! TO.P,,1*
G04 #@! TO.N,Net-(J19-Pad1)*
X122000000Y-49000000D03*
G04 #@! TD*
D10*
G04 #@! TO.P,,2*
G04 #@! TO.N,Net-(J25-Pad1)*
X129500000Y-49000000D03*
D11*
G04 #@! TO.P,,1*
G04 #@! TO.N,Net-(J18-Pad1)*
X132000000Y-49000000D03*
G04 #@! TD*
D10*
G04 #@! TO.P,,2*
G04 #@! TO.N,Net-(J25-Pad1)*
X139500000Y-49000000D03*
D11*
G04 #@! TO.P,,1*
G04 #@! TO.N,Net-(J17-Pad1)*
X142000000Y-49000000D03*
G04 #@! TD*
D10*
G04 #@! TO.P,,2*
G04 #@! TO.N,Net-(J25-Pad1)*
X149500000Y-49000000D03*
D11*
G04 #@! TO.P,,1*
G04 #@! TO.N,Net-(J16-Pad1)*
X152000000Y-49000000D03*
G04 #@! TD*
D10*
G04 #@! TO.P,,2*
G04 #@! TO.N,Net-(J25-Pad1)*
X159500000Y-49000000D03*
D11*
G04 #@! TO.P,,1*
G04 #@! TO.N,Net-(J15-Pad1)*
X162000000Y-49000000D03*
G04 #@! TD*
D10*
G04 #@! TO.P,,2*
G04 #@! TO.N,Net-(J25-Pad1)*
X169500000Y-49000000D03*
D11*
G04 #@! TO.P,,1*
G04 #@! TO.N,Net-(J14-Pad1)*
X172000000Y-49000000D03*
G04 #@! TD*
D10*
G04 #@! TO.P,,2*
G04 #@! TO.N,Net-(J25-Pad1)*
X179500000Y-49000000D03*
D11*
G04 #@! TO.P,,1*
G04 #@! TO.N,Net-(J13-Pad1)*
X182000000Y-49000000D03*
G04 #@! TD*
G04 #@! TO.P,,1*
G04 #@! TO.N,Net-(J12-Pad1)*
X181000000Y-61000000D03*
D10*
G04 #@! TO.P,,2*
G04 #@! TO.N,Net-(J25-Pad1)*
X181000000Y-58500000D03*
G04 #@! TD*
D11*
G04 #@! TO.P,,1*
G04 #@! TO.N,Net-(J11-Pad1)*
X181000000Y-71000000D03*
D10*
G04 #@! TO.P,,2*
G04 #@! TO.N,Net-(J25-Pad1)*
X181000000Y-68500000D03*
G04 #@! TD*
D11*
G04 #@! TO.P,,1*
G04 #@! TO.N,Net-(J10-Pad1)*
X181000000Y-106750000D03*
D10*
G04 #@! TO.P,,2*
G04 #@! TO.N,Net-(J25-Pad1)*
X181000000Y-104250000D03*
G04 #@! TD*
G04 #@! TO.P,,2*
G04 #@! TO.N,Net-(J25-Pad1)*
X182000000Y-116000000D03*
D11*
G04 #@! TO.P,,1*
G04 #@! TO.N,Net-(J9-Pad1)*
X179500000Y-116000000D03*
G04 #@! TD*
D10*
G04 #@! TO.P,,2*
G04 #@! TO.N,Net-(J25-Pad1)*
X172000000Y-116000000D03*
D11*
G04 #@! TO.P,,1*
G04 #@! TO.N,Net-(J8-Pad1)*
X169500000Y-116000000D03*
G04 #@! TD*
D10*
G04 #@! TO.P,,2*
G04 #@! TO.N,Net-(J25-Pad1)*
X162000000Y-116000000D03*
D11*
G04 #@! TO.P,,1*
G04 #@! TO.N,Net-(J7-Pad1)*
X159500000Y-116000000D03*
G04 #@! TD*
D10*
G04 #@! TO.P,,2*
G04 #@! TO.N,Net-(J25-Pad1)*
X152000000Y-116000000D03*
D11*
G04 #@! TO.P,,1*
G04 #@! TO.N,Net-(J6-Pad1)*
X149500000Y-116000000D03*
G04 #@! TD*
D10*
G04 #@! TO.P,,2*
G04 #@! TO.N,Net-(J25-Pad1)*
X142000000Y-116000000D03*
D11*
G04 #@! TO.P,,1*
G04 #@! TO.N,Net-(J5-Pad1)*
X139500000Y-116000000D03*
G04 #@! TD*
D10*
G04 #@! TO.P,,2*
G04 #@! TO.N,Net-(J25-Pad1)*
X132000000Y-116000000D03*
D11*
G04 #@! TO.P,,1*
G04 #@! TO.N,Net-(J4-Pad1)*
X129500000Y-116000000D03*
G04 #@! TD*
D10*
G04 #@! TO.P,,2*
G04 #@! TO.N,Net-(J25-Pad1)*
X122000000Y-116000000D03*
D11*
G04 #@! TO.P,,1*
G04 #@! TO.N,Net-(J3-Pad1)*
X119500000Y-116000000D03*
G04 #@! TD*
D10*
G04 #@! TO.P,,2*
G04 #@! TO.N,Net-(J25-Pad1)*
X112000000Y-116000000D03*
D11*
G04 #@! TO.P,,1*
G04 #@! TO.N,Net-(J2-Pad1)*
X109500000Y-116000000D03*
G04 #@! TD*
G04 #@! TO.P,,1*
G04 #@! TO.N,Net-(J1-Pad1)*
X99500000Y-116000000D03*
D10*
G04 #@! TO.P,,2*
G04 #@! TO.N,Net-(J25-Pad1)*
X102000000Y-116000000D03*
G04 #@! TD*
D12*
G04 #@! TO.P,,2*
G04 #@! TO.N,GNDREF*
X93430000Y-114500000D03*
D13*
G04 #@! TO.P,,1*
G04 #@! TO.N,Net-(A1-Pad23)*
X81250000Y-114500000D03*
G04 #@! TD*
D14*
G04 #@! TO.P,,SDA/23*
G04 #@! TO.N,N/C*
X105250000Y-74500000D03*
D12*
G04 #@! TO.P,,NC*
G04 #@! TO.N,Net-(A1-Pad17)*
X72330000Y-94830000D03*
G04 #@! TO.P,,SCL/22*
G04 #@! TO.N,N/C*
X102810000Y-74500000D03*
G04 #@! TO.P,,18*
G04 #@! TO.N,GNDREF*
X74870000Y-94830000D03*
G04 #@! TO.P,,14/A6*
G04 #@! TO.N,N/C*
X100270000Y-74500000D03*
G04 #@! TO.P,,A0/26*
G04 #@! TO.N,Net-(A1-Pad19)*
X77410000Y-94830000D03*
G04 #@! TO.P,,32/A7*
G04 #@! TO.N,N/C*
X97730000Y-74500000D03*
G04 #@! TO.P,,A1/25*
G04 #@! TO.N,Net-(A1-Pad23)*
X79950000Y-94830000D03*
G04 #@! TO.P,,15/A8*
G04 #@! TO.N,N/C*
X95190000Y-74500000D03*
G04 #@! TO.P,,A2/34*
G04 #@! TO.N,Net-(A1-Pad21)*
X82490000Y-94830000D03*
G04 #@! TO.P,,33/A9*
G04 #@! TO.N,N/C*
X92650000Y-74500000D03*
G04 #@! TO.P,,A3/39*
G04 #@! TO.N,Net-(A1-Pad22)*
X85030000Y-94830000D03*
G04 #@! TO.P,,27/A10*
G04 #@! TO.N,N/C*
X90110000Y-74500000D03*
G04 #@! TO.P,,A4/36*
G04 #@! TO.N,Net-(A1-Pad23)*
X87570000Y-94830000D03*
G04 #@! TO.P,,12/A11*
G04 #@! TO.N,N/C*
X87570000Y-74500000D03*
G04 #@! TO.P,,A5/4*
G04 #@! TO.N,Net-(A1-Pad24)*
X90110000Y-94830000D03*
G04 #@! TO.P,,13/A12*
G04 #@! TO.N,N/C*
X85030000Y-74500000D03*
G04 #@! TO.P,,SCK/5*
G04 #@! TO.N,Net-(A1-Pad25)*
X92650000Y-94830000D03*
G04 #@! TO.P,,USB*
G04 #@! TO.N,N/C*
X82490000Y-74500000D03*
G04 #@! TO.P,,MOSI/18*
G04 #@! TO.N,Net-(A1-Pad26)*
X95190000Y-94830000D03*
G04 #@! TO.P,,En*
G04 #@! TO.N,N/C*
X79950000Y-74500000D03*
G04 #@! TO.P,,MISO/19*
G04 #@! TO.N,Net-(A1-Pad27)*
X97730000Y-94830000D03*
G04 #@! TO.P,,BAT*
G04 #@! TO.N,N/C*
X77410000Y-74500000D03*
G04 #@! TO.P,,RX/16*
G04 #@! TO.N,Net-(A1-Pad28)*
X100270000Y-94830000D03*
G04 #@! TO.P,,TX/17*
G04 #@! TO.N,N/C*
X102810000Y-94830000D03*
G04 #@! TO.P,,21*
G04 #@! TO.N,Net-(A1-Pad30)*
X105250000Y-94830000D03*
G04 #@! TO.P,,3V*
G04 #@! TO.N,Net-(A1-Pad16)*
X69790000Y-94830000D03*
G04 #@! TO.P,,RST*
G04 #@! TO.N,N/C*
X67250000Y-94830000D03*
G04 #@! TD*
D15*
G04 #@! TO.P,,25*
G04 #@! TO.N,Net-(J21-Pad1)*
X134255000Y-73660000D03*
G04 #@! TO.P,,*
G04 #@! TO.N,Net-(J25-Pad1)*
X134255000Y-71120000D03*
G04 #@! TO.P,,26*
G04 #@! TO.N,Net-(J22-Pad1)*
X129175000Y-73660000D03*
G04 #@! TO.P,,*
G04 #@! TO.N,Net-(J25-Pad1)*
X126635000Y-71120000D03*
G04 #@! TO.P,,27*
G04 #@! TO.N,Net-(J23-Pad1)*
X126635000Y-73660000D03*
G04 #@! TO.P,,*
G04 #@! TO.N,Net-(J25-Pad1)*
X124095000Y-71120000D03*
G04 #@! TO.P,,28*
G04 #@! TO.N,Net-(J24-Pad1)*
X124095000Y-73660000D03*
G04 #@! TO.P,,*
G04 #@! TO.N,Net-(J25-Pad1)*
X136795000Y-71120000D03*
G04 #@! TO.P,,24*
G04 #@! TO.N,Net-(J20-Pad1)*
X136795000Y-73660000D03*
G04 #@! TO.P,,23*
G04 #@! TO.N,Net-(J19-Pad1)*
X139335000Y-73660000D03*
G04 #@! TO.P,,*
G04 #@! TO.N,Net-(J25-Pad1)*
X146955000Y-71120000D03*
X144415000Y-71120000D03*
G04 #@! TO.P,,22*
G04 #@! TO.N,Net-(J18-Pad1)*
X144415000Y-73660000D03*
G04 #@! TO.P,,21*
G04 #@! TO.N,Net-(J17-Pad1)*
X146955000Y-73660000D03*
G04 #@! TO.P,,20*
G04 #@! TO.N,Net-(J16-Pad1)*
X149495000Y-73660000D03*
G04 #@! TO.P,,19*
G04 #@! TO.N,Net-(J15-Pad1)*
X154575000Y-73660000D03*
G04 #@! TO.P,,*
G04 #@! TO.N,Net-(J25-Pad1)*
X154575000Y-71120000D03*
X157115000Y-71120000D03*
G04 #@! TO.P,,18*
G04 #@! TO.N,Net-(J14-Pad1)*
X157115000Y-73660000D03*
G04 #@! TO.P,,17*
G04 #@! TO.N,Net-(J13-Pad1)*
X159655000Y-73660000D03*
G04 #@! TO.P,,16*
G04 #@! TO.N,Net-(J12-Pad1)*
X159655000Y-91440000D03*
G04 #@! TO.P,,*
G04 #@! TO.N,Net-(J25-Pad1)*
X159655000Y-93980000D03*
X157115000Y-93980000D03*
G04 #@! TO.P,,15*
G04 #@! TO.N,Net-(J11-Pad1)*
X157115000Y-91440000D03*
G04 #@! TO.P,,14*
G04 #@! TO.N,Net-(J10-Pad1)*
X154575000Y-91440000D03*
G04 #@! TO.P,,*
G04 #@! TO.N,Net-(J25-Pad1)*
X149495000Y-93980000D03*
X146955000Y-93980000D03*
G04 #@! TO.P,,13*
G04 #@! TO.N,Net-(J9-Pad1)*
X149495000Y-91440000D03*
G04 #@! TO.P,,12*
G04 #@! TO.N,Net-(J8-Pad1)*
X146955000Y-91440000D03*
G04 #@! TO.P,,11*
G04 #@! TO.N,Net-(J7-Pad1)*
X144415000Y-91440000D03*
D16*
G04 #@! TO.P,,*
G04 #@! TO.N,Net-(J25-Pad1)*
X129175000Y-71120000D03*
X139335000Y-71120000D03*
X149495000Y-71120000D03*
X159655000Y-71250000D03*
X154575000Y-93980000D03*
X144415000Y-93980000D03*
D15*
X139335000Y-93980000D03*
X136795000Y-93980000D03*
D16*
X134255000Y-93980000D03*
D15*
G04 #@! TO.P,,10*
G04 #@! TO.N,Net-(J6-Pad1)*
X139335000Y-91440000D03*
G04 #@! TO.P,,9*
G04 #@! TO.N,Net-(J5-Pad1)*
X136795000Y-91440000D03*
G04 #@! TO.P,,8*
G04 #@! TO.N,Net-(J4-Pad1)*
X134255000Y-91440000D03*
G04 #@! TO.P,,*
G04 #@! TO.N,Net-(J25-Pad1)*
X129175000Y-93980000D03*
X126635000Y-93980000D03*
D16*
X124095000Y-93980000D03*
D15*
G04 #@! TO.P,,7*
G04 #@! TO.N,Net-(J3-Pad1)*
X129175000Y-91440000D03*
G04 #@! TO.P,,6*
G04 #@! TO.N,Net-(J2-Pad1)*
X126635000Y-91440000D03*
G04 #@! TO.P,,5*
G04 #@! TO.N,Net-(J1-Pad1)*
X124095000Y-91440000D03*
G04 #@! TO.P,,30*
G04 #@! TO.N,Net-(A1-Pad30)*
X119015000Y-76200000D03*
G04 #@! TO.P,,2*
G04 #@! TO.N,Net-(A1-Pad23)*
X119015000Y-78740000D03*
G04 #@! TO.P,,3*
G04 #@! TO.N,Net-(A1-Pad25)*
X119015000Y-81280000D03*
G04 #@! TO.P,,4*
G04 #@! TO.N,Net-(A1-Pad26)*
X119015000Y-83820000D03*
G04 #@! TO.P,,1*
G04 #@! TO.N,GNDREF*
X119015000Y-86370000D03*
G04 #@! TO.P,,32*
G04 #@! TO.N,Net-(J25-Pad1)*
X119015000Y-88890000D03*
X164735000Y-88900000D03*
G04 #@! TO.P,,*
G04 #@! TO.N,GNDREF*
X164735000Y-86360000D03*
G04 #@! TO.N,*
X164735000Y-83820000D03*
X164735000Y-81280000D03*
X164735000Y-78740000D03*
X164735000Y-76200000D03*
G04 #@! TD*
D17*
G04 #@! TO.P,,2*
G04 #@! TO.N,GNDREF*
X72501260Y-64749360D03*
G04 #@! TO.P,,1*
G04 #@! TO.N,Net-(A1-Pad23)*
X72501260Y-62250000D03*
D18*
G04 #@! TO.P,,2*
G04 #@! TO.N,GNDREF*
X68236600Y-57149680D03*
X68236600Y-67347780D03*
G04 #@! TD*
D19*
G04 #@! TO.P,J2,4*
G04 #@! TO.N,N/C*
X183175000Y-82500000D03*
D20*
G04 #@! TO.P,J2,1*
G04 #@! TO.N,Net-(J25-Pad1)*
X172775000Y-82500000D03*
D21*
G04 #@! TD*
G04 #@! TO.N,GNDREF*
G04 #@! TO.C,J2*
G36*
X180198513Y-80753611D02*
X180271318Y-80764411D01*
X180342714Y-80782295D01*
X180412013Y-80807090D01*
X180478548Y-80838559D01*
X180541678Y-80876398D01*
X180600795Y-80920242D01*
X180655330Y-80969670D01*
X180704758Y-81024205D01*
X180748602Y-81083322D01*
X180786441Y-81146452D01*
X180817910Y-81212987D01*
X180842705Y-81282286D01*
X180860589Y-81353682D01*
X180871389Y-81426487D01*
X180875000Y-81500000D01*
X180875000Y-83500000D01*
X180871389Y-83573513D01*
X180860589Y-83646318D01*
X180842705Y-83717714D01*
X180817910Y-83787013D01*
X180786441Y-83853548D01*
X180748602Y-83916678D01*
X180704758Y-83975795D01*
X180655330Y-84030330D01*
X180600795Y-84079758D01*
X180541678Y-84123602D01*
X180478548Y-84161441D01*
X180412013Y-84192910D01*
X180342714Y-84217705D01*
X180271318Y-84235589D01*
X180198513Y-84246389D01*
X180125000Y-84250000D01*
X178625000Y-84250000D01*
X178551487Y-84246389D01*
X178478682Y-84235589D01*
X178407286Y-84217705D01*
X178337987Y-84192910D01*
X178271452Y-84161441D01*
X178208322Y-84123602D01*
X178149205Y-84079758D01*
X178094670Y-84030330D01*
X178045242Y-83975795D01*
X178001398Y-83916678D01*
X177963559Y-83853548D01*
X177932090Y-83787013D01*
X177907295Y-83717714D01*
X177889411Y-83646318D01*
X177878611Y-83573513D01*
X177875000Y-83500000D01*
X177875000Y-81500000D01*
X177878611Y-81426487D01*
X177889411Y-81353682D01*
X177907295Y-81282286D01*
X177932090Y-81212987D01*
X177963559Y-81146452D01*
X178001398Y-81083322D01*
X178045242Y-81024205D01*
X178094670Y-80969670D01*
X178149205Y-80920242D01*
X178208322Y-80876398D01*
X178271452Y-80838559D01*
X178337987Y-80807090D01*
X178407286Y-80782295D01*
X178478682Y-80764411D01*
X178551487Y-80753611D01*
X178625000Y-80750000D01*
X180125000Y-80750000D01*
X180198513Y-80753611D01*
X180198513Y-80753611D01*
G37*
D22*
G04 #@! TO.P,J2,2*
G04 #@! TO.N,GNDREF*
X179375000Y-82500000D03*
D21*
G04 #@! TD*
G04 #@! TO.N,GNDREF*
G04 #@! TO.C,J2*
G36*
X176785765Y-75754213D02*
X176870704Y-75766813D01*
X176953999Y-75787677D01*
X177034848Y-75816605D01*
X177112472Y-75853319D01*
X177186124Y-75897464D01*
X177255094Y-75948616D01*
X177318718Y-76006282D01*
X177376384Y-76069906D01*
X177427536Y-76138876D01*
X177471681Y-76212528D01*
X177508395Y-76290152D01*
X177537323Y-76371001D01*
X177558187Y-76454296D01*
X177570787Y-76539235D01*
X177575000Y-76625000D01*
X177575000Y-78375000D01*
X177570787Y-78460765D01*
X177558187Y-78545704D01*
X177537323Y-78628999D01*
X177508395Y-78709848D01*
X177471681Y-78787472D01*
X177427536Y-78861124D01*
X177376384Y-78930094D01*
X177318718Y-78993718D01*
X177255094Y-79051384D01*
X177186124Y-79102536D01*
X177112472Y-79146681D01*
X177034848Y-79183395D01*
X176953999Y-79212323D01*
X176870704Y-79233187D01*
X176785765Y-79245787D01*
X176700000Y-79250000D01*
X174950000Y-79250000D01*
X174864235Y-79245787D01*
X174779296Y-79233187D01*
X174696001Y-79212323D01*
X174615152Y-79183395D01*
X174537528Y-79146681D01*
X174463876Y-79102536D01*
X174394906Y-79051384D01*
X174331282Y-78993718D01*
X174273616Y-78930094D01*
X174222464Y-78861124D01*
X174178319Y-78787472D01*
X174141605Y-78709848D01*
X174112677Y-78628999D01*
X174091813Y-78545704D01*
X174079213Y-78460765D01*
X174075000Y-78375000D01*
X174075000Y-76625000D01*
X174079213Y-76539235D01*
X174091813Y-76454296D01*
X174112677Y-76371001D01*
X174141605Y-76290152D01*
X174178319Y-76212528D01*
X174222464Y-76138876D01*
X174273616Y-76069906D01*
X174331282Y-76006282D01*
X174394906Y-75948616D01*
X174463876Y-75897464D01*
X174537528Y-75853319D01*
X174615152Y-75816605D01*
X174696001Y-75787677D01*
X174779296Y-75766813D01*
X174864235Y-75754213D01*
X174950000Y-75750000D01*
X176700000Y-75750000D01*
X176785765Y-75754213D01*
X176785765Y-75754213D01*
G37*
D23*
G04 #@! TO.P,J2,3*
G04 #@! TO.N,GNDREF*
X175825000Y-77500000D03*
G04 #@! TD*
D18*
G04 #@! TO.P,,2*
G04 #@! TO.N,GNDREF*
X68236600Y-112097780D03*
X68236600Y-101899680D03*
D17*
G04 #@! TO.P,,1*
G04 #@! TO.N,Net-(A1-Pad19)*
X72501260Y-107000000D03*
G04 #@! TO.P,,2*
G04 #@! TO.N,GNDREF*
X72501260Y-109499360D03*
G04 #@! TD*
D12*
G04 #@! TO.P,,D13*
G04 #@! TO.N,N/C*
X66690000Y-92240000D03*
G04 #@! TO.P,,D12*
X66690000Y-77000000D03*
G04 #@! TO.P,,Vin*
X102250000Y-92240000D03*
G04 #@! TO.P,,D11*
X69230000Y-77000000D03*
G04 #@! TO.P,,GND*
G04 #@! TO.N,GNDREF*
X99710000Y-92240000D03*
G04 #@! TO.P,,D10*
G04 #@! TO.N,N/C*
X71770000Y-77000000D03*
G04 #@! TO.P,,RST*
X97170000Y-92240000D03*
G04 #@! TO.P,,D9*
X74310000Y-77000000D03*
G04 #@! TO.P,,5V*
X94630000Y-92240000D03*
G04 #@! TO.P,,D8*
X76850000Y-77000000D03*
G04 #@! TO.P,,A7*
X92090000Y-92240000D03*
G04 #@! TO.P,,D7*
X79390000Y-77000000D03*
G04 #@! TO.P,,A6*
X89550000Y-92240000D03*
G04 #@! TO.P,,D6*
G04 #@! TO.N,Net-(A1-Pad30)*
X81930000Y-77000000D03*
G04 #@! TO.P,,A5*
G04 #@! TO.N,N/C*
X87010000Y-92240000D03*
G04 #@! TO.P,,D5*
G04 #@! TO.N,Net-(A1-Pad25)*
X84470000Y-77000000D03*
G04 #@! TO.P,,A4*
G04 #@! TO.N,N/C*
X84470000Y-92240000D03*
G04 #@! TO.P,,D4*
G04 #@! TO.N,Net-(A1-Pad26)*
X87010000Y-77000000D03*
G04 #@! TO.P,,A3*
G04 #@! TO.N,N/C*
X81930000Y-92240000D03*
G04 #@! TO.P,,D3*
G04 #@! TO.N,Net-(A1-Pad23)*
X89550000Y-77000000D03*
G04 #@! TO.P,,A2*
G04 #@! TO.N,N/C*
X79390000Y-92240000D03*
G04 #@! TO.P,,D2*
G04 #@! TO.N,Net-(A1-Pad23)*
X92090000Y-77000000D03*
G04 #@! TO.P,,A1*
G04 #@! TO.N,N/C*
X76850000Y-92240000D03*
G04 #@! TO.P,,GND*
G04 #@! TO.N,GNDREF*
X94630000Y-77000000D03*
G04 #@! TO.P,,A0*
G04 #@! TO.N,Net-(A1-Pad19)*
X74310000Y-92240000D03*
G04 #@! TO.P,,RST*
G04 #@! TO.N,N/C*
X97170000Y-77000000D03*
G04 #@! TO.P,,REF*
X71770000Y-92240000D03*
G04 #@! TO.P,,RX0*
X99710000Y-77000000D03*
G04 #@! TO.P,,3V3*
X69230000Y-92240000D03*
D14*
G04 #@! TO.P,,TX1*
X102250000Y-77000000D03*
G04 #@! TD*
D13*
G04 #@! TO.P,,1*
G04 #@! TO.N,Net-(A1-Pad23)*
X92500000Y-111000000D03*
D12*
G04 #@! TO.P,,2*
X92500000Y-98820000D03*
G04 #@! TD*
D11*
G04 #@! TO.P,,1*
G04 #@! TO.N,GNDREF*
X181000000Y-96500000D03*
D10*
G04 #@! TO.P,,2*
G04 #@! TO.N,Net-(J25-Pad1)*
X181000000Y-94000000D03*
G04 #@! TO.P,,3*
X181000000Y-91500000D03*
G04 #@! TD*
D24*
G04 #@! TO.N,Net-(J25-Pad1)*
X146500000Y-70665000D02*
X146955000Y-71120000D01*
G04 #@! TO.N,Net-(A1-Pad19)*
X77410000Y-101041160D02*
X77410000Y-94830000D01*
X72501260Y-107000000D02*
X72501260Y-105949900D01*
X72501260Y-105949900D02*
X77410000Y-101041160D01*
X76900000Y-94830000D02*
X77410000Y-94830000D01*
X74310000Y-92240000D02*
X76900000Y-94830000D01*
G04 #@! TO.N,Net-(A1-Pad23)*
X74000940Y-62250000D02*
X74750000Y-62999060D01*
X72501260Y-62250000D02*
X74000940Y-62250000D01*
X105000000Y-78740000D02*
X119015000Y-78740000D01*
X74750000Y-62999060D02*
X74750000Y-63000000D01*
X74750000Y-63000000D02*
X83250000Y-71500000D01*
X111775000Y-71500000D02*
X119015000Y-78740000D01*
X83250000Y-71500000D02*
X111775000Y-71500000D01*
X89550000Y-77000000D02*
X91290000Y-78740000D01*
X103660000Y-78740000D02*
X104000000Y-78740000D01*
X104000000Y-78740000D02*
X105000000Y-78740000D01*
X104250000Y-99250000D02*
X92500000Y-111000000D01*
X122700009Y-82425009D02*
X122700009Y-91038269D01*
X119015000Y-78740000D02*
X122700009Y-82425009D01*
X122700009Y-91038269D02*
X120988278Y-92750000D01*
X120988278Y-92750000D02*
X116250000Y-92750000D01*
X116250000Y-92750000D02*
X109750000Y-99250000D01*
X109750000Y-99250000D02*
X104250000Y-99250000D01*
X91560000Y-98820000D02*
X92500000Y-98820000D01*
X87570000Y-94830000D02*
X91560000Y-98820000D01*
X91630001Y-104119999D02*
X81250000Y-114500000D01*
X92500000Y-103250000D02*
X91630001Y-104119999D01*
X92500000Y-98820000D02*
X92500000Y-103250000D01*
X88750001Y-76200001D02*
X89550000Y-77000000D01*
X88424999Y-75874999D02*
X88750001Y-76200001D01*
X81389999Y-75874999D02*
X88424999Y-75874999D01*
X80749999Y-76514999D02*
X81389999Y-75874999D01*
X80749999Y-94030001D02*
X80749999Y-76514999D01*
X79950000Y-94830000D02*
X80749999Y-94030001D01*
X93830000Y-78740000D02*
X94250000Y-78740000D01*
X92090000Y-77000000D02*
X93830000Y-78740000D01*
X91290000Y-78740000D02*
X94250000Y-78740000D01*
X94250000Y-78740000D02*
X104000000Y-78740000D01*
G04 #@! TO.N,Net-(A1-Pad25)*
X91850001Y-94030001D02*
X92650000Y-94830000D01*
X90964999Y-93144999D02*
X91850001Y-94030001D01*
X90964999Y-91989997D02*
X90964999Y-93144999D01*
X84470000Y-85494998D02*
X90964999Y-91989997D01*
X84470000Y-77000000D02*
X84470000Y-85494998D01*
X92650000Y-95961370D02*
X92650000Y-94830000D01*
X94688630Y-98000000D02*
X92650000Y-95961370D01*
X119015000Y-81280000D02*
X121750000Y-84015000D01*
X121750000Y-84015000D02*
X121750000Y-90250000D01*
X121750000Y-90250000D02*
X120750000Y-91250000D01*
X120750000Y-91250000D02*
X115500000Y-91250000D01*
X115500000Y-91250000D02*
X108750000Y-98000000D01*
X108750000Y-98000000D02*
X94688630Y-98000000D01*
G04 #@! TO.N,Net-(A1-Pad26)*
X106200000Y-83820000D02*
X119015000Y-83820000D01*
X95190000Y-94830000D02*
X97110000Y-96750000D01*
X106085000Y-96750000D02*
X119015000Y-83820000D01*
X97110000Y-96750000D02*
X106085000Y-96750000D01*
X93830000Y-83820000D02*
X106200000Y-83820000D01*
X87010000Y-77000000D02*
X93830000Y-83820000D01*
D25*
G04 #@! TO.N,Net-(J25-Pad1)*
X179775000Y-91500000D02*
X181000000Y-91500000D01*
X172775000Y-84500000D02*
X179775000Y-91500000D01*
X172775000Y-82500000D02*
X172775000Y-84500000D01*
X169835000Y-94000000D02*
X164735000Y-88900000D01*
X181000000Y-94000000D02*
X169835000Y-94000000D01*
D24*
X124020000Y-93980000D02*
X124095000Y-93980000D01*
X102000000Y-116000000D02*
X124020000Y-93980000D01*
X126635000Y-95237235D02*
X126635000Y-93980000D01*
X126635000Y-102602436D02*
X126635000Y-95237235D01*
X113237436Y-116000000D02*
X126635000Y-102602436D01*
X112000000Y-116000000D02*
X113237436Y-116000000D01*
X129175000Y-108825000D02*
X122000000Y-116000000D01*
X129175000Y-93980000D02*
X129175000Y-108825000D01*
X134255000Y-113745000D02*
X132000000Y-116000000D01*
X134255000Y-93980000D02*
X134255000Y-113745000D01*
X136795000Y-110795000D02*
X142000000Y-116000000D01*
X136795000Y-93980000D02*
X136795000Y-110795000D01*
X139335000Y-103335000D02*
X152000000Y-116000000D01*
X139335000Y-93980000D02*
X139335000Y-103335000D01*
X144415000Y-98415000D02*
X162000000Y-116000000D01*
X144415000Y-93980000D02*
X144415000Y-98415000D01*
X146955000Y-93980000D02*
X146955000Y-97955000D01*
X146955000Y-97955000D02*
X156750000Y-107750000D01*
X163750000Y-107750000D02*
X172000000Y-116000000D01*
X156750000Y-107750000D02*
X163750000Y-107750000D01*
X149495000Y-93980000D02*
X149495000Y-96995000D01*
X149495000Y-96995000D02*
X157750000Y-105250000D01*
X157750000Y-105250000D02*
X165000000Y-105250000D01*
X165000000Y-105250000D02*
X171000000Y-111250000D01*
X177250000Y-111250000D02*
X182000000Y-116000000D01*
X171000000Y-111250000D02*
X177250000Y-111250000D01*
X154575000Y-95119000D02*
X160206000Y-100750000D01*
X154575000Y-93980000D02*
X154575000Y-95119000D01*
X160206000Y-100750000D02*
X173750000Y-100750000D01*
X177250000Y-104250000D02*
X181000000Y-104250000D01*
X173750000Y-100750000D02*
X177250000Y-104250000D01*
X69500000Y-49000000D02*
X77250000Y-56750000D01*
X77250000Y-56750000D02*
X86250000Y-56750000D01*
X86250000Y-56750000D02*
X92500000Y-63000000D01*
X115975000Y-63000000D02*
X124095000Y-71120000D01*
X92500000Y-63000000D02*
X115975000Y-63000000D01*
X84500000Y-54000000D02*
X87250000Y-54000000D01*
X79500000Y-49000000D02*
X84500000Y-54000000D01*
X87250000Y-54000000D02*
X93750000Y-60500000D01*
X116015000Y-60500000D02*
X126635000Y-71120000D01*
X93750000Y-60500000D02*
X116015000Y-60500000D01*
X129175000Y-69981000D02*
X129175000Y-71120000D01*
X117194000Y-58000000D02*
X129175000Y-69981000D01*
X97250000Y-58000000D02*
X117194000Y-58000000D01*
X89500000Y-50250000D02*
X97250000Y-58000000D01*
X89500000Y-49000000D02*
X89500000Y-50250000D01*
X99500000Y-49000000D02*
X106750000Y-56250000D01*
X119385000Y-56250000D02*
X134255000Y-71120000D01*
X106750000Y-56250000D02*
X119385000Y-56250000D01*
X120675000Y-55000000D02*
X136795000Y-71120000D01*
X109500000Y-49000000D02*
X115500000Y-55000000D01*
X115500000Y-55000000D02*
X120675000Y-55000000D01*
X139335000Y-68835000D02*
X139335000Y-71120000D01*
X119500000Y-49000000D02*
X139335000Y-68835000D01*
X129500000Y-56205000D02*
X144415000Y-71120000D01*
X129500000Y-49000000D02*
X129500000Y-56205000D01*
X139500000Y-63665000D02*
X146955000Y-71120000D01*
X139500000Y-49000000D02*
X139500000Y-63665000D01*
X149500000Y-71115000D02*
X149495000Y-71120000D01*
X149500000Y-49000000D02*
X149500000Y-71115000D01*
X159500000Y-66195000D02*
X154575000Y-71120000D01*
X159500000Y-49000000D02*
X159500000Y-66195000D01*
X169500000Y-58735000D02*
X157115000Y-71120000D01*
X169500000Y-49000000D02*
X169500000Y-58735000D01*
X160794000Y-71250000D02*
X159655000Y-71250000D01*
X179500000Y-52544000D02*
X160794000Y-71250000D01*
X179500000Y-49000000D02*
X179500000Y-52544000D01*
X177000000Y-72500000D02*
X181000000Y-68500000D01*
X163000000Y-76138278D02*
X166638278Y-72500000D01*
X165500000Y-92500000D02*
X163000000Y-90000000D01*
X158003999Y-94868999D02*
X158003999Y-96503999D01*
X157115000Y-93980000D02*
X158003999Y-94868999D01*
X163000000Y-90000000D02*
X163000000Y-76138278D01*
X158003999Y-96503999D02*
X161250000Y-99750000D01*
X161250000Y-99750000D02*
X163000000Y-99750000D01*
X163000000Y-99750000D02*
X165500000Y-97250000D01*
X166638278Y-72500000D02*
X177000000Y-72500000D01*
X165500000Y-97250000D02*
X165500000Y-92500000D01*
X159655000Y-93980000D02*
X162000000Y-91635000D01*
X162000000Y-91635000D02*
X162000000Y-74000000D01*
X162000000Y-74000000D02*
X166750000Y-69250000D01*
X166750000Y-69250000D02*
X173500000Y-69250000D01*
X173500000Y-69250000D02*
X175750000Y-67000000D01*
X175750000Y-63750000D02*
X181000000Y-58500000D01*
X175750000Y-67000000D02*
X175750000Y-63750000D01*
G04 #@! TD*
M02*
